<svg width="34" height="36" viewBox="0 0 34 36" fill="none" xmlns="http://www.w3.org/2000/svg">
<g clip-path="url(#clip0_1163_63)">
<path d="M22.8581 17.966C24.7636 16.8045 26.2126 15.1075 26.9902 13.1267C27.7679 11.1459 27.8328 8.98667 27.1753 6.96916C26.5178 4.95166 25.1729 3.18328 23.3401 1.92619C21.5073 0.669101 19.284 -0.00976563 17 -0.00976562C14.716 -0.00976563 12.4927 0.669101 10.6599 1.92619C8.82706 3.18328 7.48221 4.95166 6.82473 6.96916C6.16725 8.98667 6.23213 11.1459 7.00976 13.1267C7.7874 15.1075 9.23638 16.8045 11.1419 17.966C7.87809 19.0717 5.06021 21.0736 3.06801 23.702C1.07581 26.3304 0.00503508 29.4589 0 32.6659L0 33.9902H33.9809V32.6659C33.9773 29.461 32.9093 26.3341 30.9207 23.7059C28.9321 21.0778 26.1183 19.0746 22.8581 17.966ZM9.20833 9.79939C9.20833 8.37801 9.66531 6.98855 10.5215 5.80671C11.3776 4.62488 12.5945 3.70375 14.0183 3.15981C15.442 2.61587 17.0086 2.47355 18.5201 2.75085C20.0315 3.02815 21.4199 3.71261 22.5095 4.71768C23.5992 5.72274 24.3413 7.00328 24.6419 8.39735C24.9426 9.79141 24.7883 11.2364 24.1986 12.5496C23.6088 13.8628 22.6101 14.9852 21.3288 15.7748C20.0475 16.5645 18.541 16.986 17 16.986C14.9339 16.9848 12.9528 16.2273 11.4919 14.8798C10.0309 13.5323 9.2096 11.705 9.20833 9.79939ZM2.90512 31.3416C3.24124 28.1068 4.87217 25.1035 7.47962 22.918C10.0871 20.7325 13.4839 19.5215 17.0072 19.5215C20.5304 19.5215 23.9273 20.7325 26.5347 22.918C29.1422 25.1035 30.7731 28.1068 31.1092 31.3416H2.90512Z" fill="white"/>
</g>
<defs>
<clipPath id="clip0_1163_63">
<rect width="34" height="36" fill="white"/>
</clipPath>
</defs>
</svg>
